<svg width="20" height="20" viewBox="0 0 20 20" fill="none" xmlns="http://www.w3.org/2000/svg">
<path d="M3.85024 15.1C4.70024 14.45 5.65024 13.9375 6.70024 13.5625C7.75024 13.1875 8.85024 13 10.0002 13C11.1502 13 12.2502 13.1875 13.3002 13.5625C14.3502 13.9375 15.3002 14.45 16.1502 15.1C16.7336 14.4167 17.1877 13.6417 17.5127 12.775C17.8377 11.9083 18.0002 10.9833 18.0002 10C18.0002 7.78333 17.2211 5.89583 15.6627 4.3375C14.1044 2.77917 12.2169 2 10.0002 2C7.78358 2 5.89608 2.77917 4.33774 4.3375C2.77941 5.89583 2.00024 7.78333 2.00024 10C2.00024 10.9833 2.16274 11.9083 2.48774 12.775C2.81274 13.6417 3.26691 14.4167 3.85024 15.1ZM10.0002 11C9.01691 11 8.18774 10.6625 7.51274 9.9875C6.83774 9.3125 6.50024 8.48333 6.50024 7.5C6.50024 6.51667 6.83774 5.6875 7.51274 5.0125C8.18774 4.3375 9.01691 4 10.0002 4C10.9836 4 11.8127 4.3375 12.4877 5.0125C13.1627 5.6875 13.5002 6.51667 13.5002 7.5C13.5002 8.48333 13.1627 9.3125 12.4877 9.9875C11.8127 10.6625 10.9836 11 10.0002 11ZM10.0002 20C8.61691 20 7.31691 19.7375 6.10024 19.2125C4.88358 18.6875 3.82524 17.975 2.92524 17.075C2.02524 16.175 1.31274 15.1167 0.787744 13.9C0.262744 12.6833 0.000244141 11.3833 0.000244141 10C0.000244141 8.61667 0.262744 7.31667 0.787744 6.1C1.31274 4.88333 2.02524 3.825 2.92524 2.925C3.82524 2.025 4.88358 1.3125 6.10024 0.7875C7.31691 0.2625 8.61691 0 10.0002 0C11.3836 0 12.6836 0.2625 13.9002 0.7875C15.1169 1.3125 16.1752 2.025 17.0752 2.925C17.9752 3.825 18.6877 4.88333 19.2127 6.1C19.7377 7.31667 20.0002 8.61667 20.0002 10C20.0002 11.3833 19.7377 12.6833 19.2127 13.9C18.6877 15.1167 17.9752 16.175 17.0752 17.075C16.1752 17.975 15.1169 18.6875 13.9002 19.2125C12.6836 19.7375 11.3836 20 10.0002 20ZM10.0002 18C10.8836 18 11.7169 17.8708 12.5002 17.6125C13.2836 17.3542 14.0002 16.9833 14.6502 16.5C14.0002 16.0167 13.2836 15.6458 12.5002 15.3875C11.7169 15.1292 10.8836 15 10.0002 15C9.11691 15 8.28358 15.1292 7.50024 15.3875C6.71691 15.6458 6.00024 16.0167 5.35024 16.5C6.00024 16.9833 6.71691 17.3542 7.50024 17.6125C8.28358 17.8708 9.11691 18 10.0002 18ZM10.0002 9C10.4336 9 10.7919 8.85833 11.0752 8.575C11.3586 8.29167 11.5002 7.93333 11.5002 7.5C11.5002 7.06667 11.3586 6.70833 11.0752 6.425C10.7919 6.14167 10.4336 6 10.0002 6C9.56691 6 9.20858 6.14167 8.92524 6.425C8.64191 6.70833 8.50024 7.06667 8.50024 7.5C8.50024 7.93333 8.64191 8.29167 8.92524 8.575C9.20858 8.85833 9.56691 9 10.0002 9Z" fill="#344054"/>
</svg>
