<svg width="21" height="21" viewBox="0 0 21 21" fill="none" xmlns="http://www.w3.org/2000/svg">
<path d="M11.925 9.05001L7.675 4.80001L9.1 3.40001L11.925 6.22501L17.6 0.575012L19 1.97501L11.925 9.05001ZM6 16.5L12.95 18.4L18.9 16.55C18.8167 16.4 18.6958 16.2708 18.5375 16.1625C18.3792 16.0542 18.2 16 18 16H12.95C12.5 16 12.1417 15.9833 11.875 15.95C11.6083 15.9167 11.3333 15.85 11.05 15.75L8.725 14.975L9.275 13.025L11.3 13.7C11.5833 13.7833 11.9167 13.85 12.3 13.9C12.6833 13.95 13.25 13.9833 14 14C14 13.8167 13.9458 13.6417 13.8375 13.475C13.7292 13.3083 13.6 13.2 13.45 13.15L7.6 11H6V16.5ZM0 20V9.00001H7.6C7.71667 9.00001 7.83333 9.01251 7.95 9.03751C8.06667 9.06251 8.175 9.09168 8.275 9.12501L14.15 11.3C14.7 11.5 15.1458 11.85 15.4875 12.35C15.8292 12.85 16 13.4 16 14H18C18.8333 14 19.5417 14.275 20.125 14.825C20.7083 15.375 21 16.1 21 17V18L13 20.5L6 18.55V20H0ZM2 18H4V11H2V18Z" fill="white"/>
</svg>
