<svg width="26" height="27" viewBox="0 0 26 27" fill="none" xmlns="http://www.w3.org/2000/svg">
<rect width="26" height="26.4815" rx="13" fill="#2E4ACB"/>
<path d="M11.6519 19.9815L11.2185 17.9593C10.9457 17.863 10.6929 17.7466 10.4602 17.6102C10.2275 17.4738 9.99877 17.3173 9.77407 17.1407L7.84815 17.7667L6.5 15.4556L8.04074 14.1074C8.00864 13.8185 7.99259 13.5296 7.99259 13.2407C7.99259 12.9519 8.00864 12.663 8.04074 12.3741L6.5 11.0259L7.84815 8.71481L9.77407 9.34074C9.99877 9.1642 10.2275 9.00772 10.4602 8.8713C10.6929 8.73488 10.9457 8.61852 11.2185 8.52222L11.6519 6.5H14.3481L14.7815 8.52222C15.0543 8.61852 15.3071 8.73488 15.5398 8.8713C15.7725 9.00772 16.0012 9.1642 16.2259 9.34074L18.1519 8.71481L19.5 11.0259L17.9593 12.3741C17.9914 12.663 18.0074 12.9519 18.0074 13.2407C18.0074 13.5296 17.9914 13.8185 17.9593 14.1074L19.5 15.4556L18.1519 17.7667L16.2259 17.1407C16.0012 17.3173 15.7725 17.4738 15.5398 17.6102C15.3071 17.7466 15.0543 17.863 14.7815 17.9593L14.3481 19.9815H11.6519ZM13 16.1296C13.8025 16.1296 14.4846 15.8488 15.0463 15.287C15.608 14.7253 15.8889 14.0432 15.8889 13.2407C15.8889 12.4383 15.608 11.7562 15.0463 11.1944C14.4846 10.6327 13.8025 10.3519 13 10.3519C12.1975 10.3519 11.5154 10.6327 10.9537 11.1944C10.392 11.7562 10.1111 12.4383 10.1111 13.2407C10.1111 14.0432 10.392 14.7253 10.9537 15.287C11.5154 15.8488 12.1975 16.1296 13 16.1296Z" fill="#F9FAFB"/>
</svg>
