<svg width="101" height="49" viewBox="0 0 101 49" fill="none" xmlns="http://www.w3.org/2000/svg">
<g clip-path="url(#clip0_11820_1466)">
<path d="M79.1889 16.1546C79.4974 16.1546 79.7874 16.2328 80.0406 16.3703C80.5976 16.6729 80.9758 17.2631 80.9758 17.9416V23.0183H85.8903C86.8773 23.0183 87.6773 23.8184 87.6773 24.8053C87.6773 25.7923 86.8773 26.5925 85.8903 26.5925H80.9758V31.4103C80.9758 32.3972 80.1758 33.1972 79.1889 33.1972C78.9812 33.1972 65.5016 33.1919 65.5016 33.1919C64.5144 33.1919 63.7144 32.3918 63.7144 31.4047V24.7242H63.7185C63.7614 23.7752 64.5419 23.0183 65.5016 23.0183H77.4019V19.7285H63.6664L57.1474 31.8248C57.0434 32.3602 56.6986 32.8419 56.169 33.0963C55.9197 33.2162 55.6563 33.273 55.397 33.273C54.7773 33.273 54.1808 32.9482 53.8533 32.3862C53.7872 32.2856 53.7312 32.1791 53.6868 32.0685L48.5387 21.9632L43.3305 31.8433C43.1051 32.3726 42.7757 32.8417 42.2461 33.0963C41.9968 33.2162 41.7334 33.273 41.4743 33.273C40.8544 33.273 40.2581 32.9484 39.9303 32.3865C39.8641 32.2856 39.808 32.1789 39.7634 32.0677L33.4772 19.7283H22.9781V23.0181H31.4668C32.4537 23.0181 33.2537 23.8181 33.2537 24.8051C33.2537 25.792 32.4537 26.5923 31.4668 26.5923H22.9781V31.507C22.9781 32.4939 22.1781 33.294 21.1911 33.294C20.2042 33.294 19.4039 32.4939 19.4039 31.507V26.5925H14.4897C13.5028 26.5925 12.7025 25.7925 12.7025 24.8053C12.7025 23.8184 13.5025 23.0183 14.4897 23.0183H19.4039V17.9416C19.4039 17.2631 19.7821 16.6729 20.3392 16.3703C20.5924 16.2328 20.8826 16.1546 21.1911 16.1546H34.5129C34.8026 16.1546 35.0756 16.225 35.3175 16.3476C35.6914 16.5138 36.0106 16.8074 36.2017 17.2049L41.4705 27.5475L46.7561 17.6696C47.0219 17.1289 47.1691 16.643 47.7401 16.3683C47.9894 16.2484 48.2528 16.1916 48.5118 16.1916C48.9539 16.1916 49.3842 16.3566 49.7137 16.6549C50.0393 16.9095 50.1899 17.0818 50.4133 17.5146L55.3934 27.5473L60.9829 17.1766C61.1283 16.9212 61.3279 16.7163 61.558 16.5659C61.8675 16.3089 62.2652 16.1541 62.6992 16.1541H79.1889V16.1546ZM67.2077 29.6177H77.4019V26.5925H67.2074V29.6177H67.2077ZM79.1889 12.4993H62.6992C61.5017 12.4993 60.3332 12.8975 59.3855 13.6244C58.7404 14.0828 58.1968 14.6825 57.8061 15.3692L57.7852 15.4057L57.7652 15.4428L55.4848 19.674C55.4848 19.674 52.8373 14.4909 52.069 13.8591C51.0793 13.0054 49.8217 12.5368 48.5118 12.5368C47.7023 12.5368 46.8874 12.7227 46.1556 13.0746C44.7371 13.7567 43.9524 15.0068 43.2833 16.4792L41.5616 19.6737L39.472 15.5719C38.9237 14.4605 38.0089 13.5674 36.8847 13.0449C36.1473 12.6876 35.3292 12.4993 34.5129 12.4993H21.1911C20.2861 12.4993 19.3883 12.7271 18.5946 13.1582C16.8391 14.1118 15.7486 15.9445 15.7486 17.9416V19.363H14.4897C11.4887 19.363 9.04715 21.8045 9.04715 24.8053C9.04715 27.8063 11.4887 30.2476 14.4897 30.2476H15.7486V31.507C15.7486 34.5078 18.1901 36.9493 21.1911 36.9493C24.1919 36.9493 26.6334 34.5078 26.6334 31.507V30.2476H31.4668C32.5127 30.2476 33.4909 29.9511 34.3211 29.4376L36.4519 33.62C36.5587 33.8591 36.6832 34.0916 36.8238 34.3138C37.8061 35.9292 39.5787 36.9284 41.4743 36.9284C42.2841 36.9284 43.099 36.7422 43.8306 36.3903C45.1582 35.7521 46.3113 34.6747 46.9003 33.294L48.4482 29.837L50.3763 33.6213C50.4826 33.8591 50.6061 34.0901 50.7462 34.3114C51.7283 35.9283 53.5014 36.9281 55.3978 36.9281C56.2075 36.9281 57.0222 36.7419 57.754 36.3903C58.9983 35.7923 59.9655 34.7332 60.4633 33.4614C61.2763 35.4457 63.229 36.847 65.5023 36.847L79.1896 36.8509C82.1904 36.8509 84.6319 34.508 84.6319 31.507V30.2476H85.891C88.8918 30.2476 91.3334 27.8063 91.3334 24.8053C91.3334 21.8045 88.8918 19.363 85.891 19.363H84.6319V17.9416C84.6319 15.9445 83.5414 14.1118 81.7861 13.1582C80.9917 12.7271 80.0939 12.4993 79.1889 12.4993Z" fill="#B4B7C9"/>
</g>
<defs>
<clipPath id="clip0_11820_1466">
<rect width="82.2862" height="24.45" fill="white" transform="translate(9.04715 12.4993)"/>
</clipPath>
</defs>
</svg>
