<svg width="22" height="22" viewBox="0 0 22 22" fill="none" xmlns="http://www.w3.org/2000/svg">
<rect width="22" height="22" rx="11" fill="#98A2B3"/>
<path d="M10.4128 17C9.9355 16.9523 9.47727 16.8353 9.03813 16.6492C8.59899 16.463 8.17894 16.2172 7.77799 15.9117L8.57989 15.0811C8.85674 15.2816 9.1503 15.4439 9.46056 15.568C9.77083 15.6921 10.0882 15.778 10.4128 15.8258V17ZM11.5584 17V15.8258C12.5513 15.6826 13.3723 15.2363 14.0214 14.4869C14.6706 13.7375 14.9952 12.8663 14.9952 11.8735C14.9952 10.7566 14.6061 9.80907 13.8281 9.03103C13.0501 8.25298 12.1026 7.86396 10.9856 7.86396H10.8711L11.7875 8.78043L10.9856 9.58234L8.69445 7.29117L10.9856 5L11.7875 5.83055L10.8997 6.71838H10.9856C11.7016 6.71838 12.3723 6.85442 12.9976 7.12649C13.6229 7.39857 14.167 7.76611 14.63 8.22912C15.093 8.69212 15.4606 9.23628 15.7326 9.86158C16.0047 10.4869 16.1408 11.1575 16.1408 11.8735C16.1408 13.1814 15.7064 14.3198 14.8377 15.2888C13.9689 16.2578 12.8758 16.8282 11.5584 17ZM6.94744 15.0811C6.64195 14.6802 6.39612 14.2601 6.20997 13.821C6.02381 13.3819 5.90686 12.9236 5.85913 12.4463H7.03336C7.08109 12.7709 7.16701 13.0883 7.29111 13.3986C7.41522 13.7088 7.57751 14.0024 7.77799 14.2792L6.94744 15.0811ZM5.85913 11.3007C5.91641 10.8138 6.03574 10.3461 6.21713 9.89737C6.39851 9.44869 6.64195 9.03819 6.94744 8.66587L7.77799 9.46778C7.57751 9.74463 7.41522 10.0382 7.29111 10.3484C7.16701 10.6587 7.08109 10.9761 7.03336 11.3007H5.85913Z" fill="white"/>
</svg>
