<svg width="22" height="22" viewBox="0 0 22 22" fill="none" xmlns="http://www.w3.org/2000/svg">
<rect width="22" height="22" rx="11" fill="#98A2B3"/>
<mask id="mask0_12317_9475" style="mask-type:alpha" maskUnits="userSpaceOnUse" x="5" y="5" width="12" height="12">
<rect x="5" y="5.46484" width="12" height="11.0704" fill="#D9D9D9"/>
</mask>
<g mask="url(#mask0_12317_9475)">
<path d="M7.5 15.613C7.225 15.613 6.98958 15.5227 6.79375 15.3421C6.59792 15.1614 6.5 14.9442 6.5 14.6905V8.23277C6.5 7.97907 6.59792 7.76189 6.79375 7.58123C6.98958 7.40056 7.225 7.31023 7.5 7.31023H8V6.3877H9V7.31023H13V6.3877H14V7.31023H14.5C14.775 7.31023 15.0104 7.40056 15.2063 7.58123C15.4021 7.76189 15.5 7.97907 15.5 8.23277V14.6905C15.5 14.9442 15.4021 15.1614 15.2063 15.3421C15.0104 15.5227 14.775 15.613 14.5 15.613H7.5ZM7.5 14.6905H14.5V10.0778H7.5V14.6905ZM7.5 9.1553H14.5V8.23277H7.5V9.1553ZM11 11.9229C10.8583 11.9229 10.7396 11.8787 10.6438 11.7903C10.5479 11.7019 10.5 11.5923 10.5 11.4616C10.5 11.3309 10.5479 11.2214 10.6438 11.133C10.7396 11.0446 10.8583 11.0004 11 11.0004C11.1417 11.0004 11.2604 11.0446 11.3563 11.133C11.4521 11.2214 11.5 11.3309 11.5 11.4616C11.5 11.5923 11.4521 11.7019 11.3563 11.7903C11.2604 11.8787 11.1417 11.9229 11 11.9229ZM9 11.9229C8.85833 11.9229 8.73958 11.8787 8.64375 11.7903C8.54792 11.7019 8.5 11.5923 8.5 11.4616C8.5 11.3309 8.54792 11.2214 8.64375 11.133C8.73958 11.0446 8.85833 11.0004 9 11.0004C9.14167 11.0004 9.26042 11.0446 9.35625 11.133C9.45208 11.2214 9.5 11.3309 9.5 11.4616C9.5 11.5923 9.45208 11.7019 9.35625 11.7903C9.26042 11.8787 9.14167 11.9229 9 11.9229ZM13 11.9229C12.8583 11.9229 12.7396 11.8787 12.6438 11.7903C12.5479 11.7019 12.5 11.5923 12.5 11.4616C12.5 11.3309 12.5479 11.2214 12.6438 11.133C12.7396 11.0446 12.8583 11.0004 13 11.0004C13.1417 11.0004 13.2604 11.0446 13.3563 11.133C13.4521 11.2214 13.5 11.3309 13.5 11.4616C13.5 11.5923 13.4521 11.7019 13.3563 11.7903C13.2604 11.8787 13.1417 11.9229 13 11.9229ZM11 13.768C10.8583 13.768 10.7396 13.7238 10.6438 13.6354C10.5479 13.547 10.5 13.4374 10.5 13.3067C10.5 13.176 10.5479 13.0665 10.6438 12.9781C10.7396 12.8896 10.8583 12.8454 11 12.8454C11.1417 12.8454 11.2604 12.8896 11.3563 12.9781C11.4521 13.0665 11.5 13.176 11.5 13.3067C11.5 13.4374 11.4521 13.547 11.3563 13.6354C11.2604 13.7238 11.1417 13.768 11 13.768ZM9 13.768C8.85833 13.768 8.73958 13.7238 8.64375 13.6354C8.54792 13.547 8.5 13.4374 8.5 13.3067C8.5 13.176 8.54792 13.0665 8.64375 12.9781C8.73958 12.8896 8.85833 12.8454 9 12.8454C9.14167 12.8454 9.26042 12.8896 9.35625 12.9781C9.45208 13.0665 9.5 13.176 9.5 13.3067C9.5 13.4374 9.45208 13.547 9.35625 13.6354C9.26042 13.7238 9.14167 13.768 9 13.768ZM13 13.768C12.8583 13.768 12.7396 13.7238 12.6438 13.6354C12.5479 13.547 12.5 13.4374 12.5 13.3067C12.5 13.176 12.5479 13.0665 12.6438 12.9781C12.7396 12.8896 12.8583 12.8454 13 12.8454C13.1417 12.8454 13.2604 12.8896 13.3563 12.9781C13.4521 13.0665 13.5 13.176 13.5 13.3067C13.5 13.4374 13.4521 13.547 13.3563 13.6354C13.2604 13.7238 13.1417 13.768 13 13.768Z" fill="white"/>
</g>
</svg>
