<svg width="25" height="25" viewBox="0 0 25 25" fill="none" xmlns="http://www.w3.org/2000/svg">
<rect width="25" height="25" rx="4" fill="#667085"/>
<g clip-path="url(#clip0_11905_32477)">
<path d="M7.30047 6.40625C6.58181 6.40625 6.00012 6.99156 6 7.71175C6 8.43264 6.58169 9.01783 7.30058 9.01783C8.01749 9.01783 8.6 8.43264 8.6 7.71175C8.6 6.99144 8.01738 6.40625 7.30047 6.40625Z" fill="white"/>
<path d="M8.6 9.88826H6V18.5935H8.6V9.88826Z" fill="white"/>
<path d="M15.6665 9.88826C14.3145 9.88826 13.4079 10.5924 13.0369 11.2601H12.9997V10.0995H10.334L10.3338 18.5935H13.1108V14.3915C13.1108 13.2837 13.3329 12.2106 14.7788 12.2106C16.2041 12.2106 16.2231 13.4776 16.2231 14.4625V18.5934H19.0005V13.9344C19.0005 11.6475 18.481 9.88826 15.6665 9.88826Z" fill="white"/>
</g>
<defs>
<clipPath id="clip0_11905_32477">
<rect width="13" height="13" fill="white" transform="translate(6 6)"/>
</clipPath>
</defs>
</svg>
