<svg width="32" height="40" viewBox="0 0 32 40" fill="none" xmlns="http://www.w3.org/2000/svg">
<path fill-rule="evenodd" clip-rule="evenodd" d="M16.0002 39.9983C15.5942 39.9983 15.1882 39.8743 14.8402 39.6263C14.2322 39.1963 -0.0578239 28.8783 0.000176075 15.9883C0.000176075 7.17629 7.17817 -0.00170898 16.0002 -0.00170898C24.8222 -0.00170898 32.0002 7.17629 32.0002 15.9983C32.0582 28.8783 17.7682 39.1963 17.1602 39.6263C16.8122 39.8743 16.4062 39.9983 16.0002 39.9983ZM16 23.9983C20.4183 23.9983 24 20.4166 24 15.9983C24 11.58 20.4183 7.99829 16 7.99829C11.5817 7.99829 8 11.58 8 15.9983C8 20.4166 11.5817 23.9983 16 23.9983Z" fill="#2E4ACB"/>
</svg>
