<svg width="16" height="20" viewBox="0 0 16 20" fill="none" xmlns="http://www.w3.org/2000/svg">
<path d="M-0.000244141 17V15H1.99976V8C1.99976 6.61667 2.41642 5.3875 3.24976 4.3125C4.08309 3.2375 5.16642 2.53333 6.49976 2.2V1.5C6.49976 1.08333 6.64559 0.729167 6.93726 0.4375C7.22892 0.145833 7.58309 0 7.99976 0C8.41642 0 8.77059 0.145833 9.06226 0.4375C9.35392 0.729167 9.49976 1.08333 9.49976 1.5V2.2C10.8331 2.53333 11.9164 3.2375 12.7498 4.3125C13.5831 5.3875 13.9998 6.61667 13.9998 8V15H15.9998V17H-0.000244141ZM7.99976 20C7.44976 20 6.97892 19.8042 6.58726 19.4125C6.19559 19.0208 5.99976 18.55 5.99976 18H9.99976C9.99976 18.55 9.80392 19.0208 9.41226 19.4125C9.02059 19.8042 8.54976 20 7.99976 20ZM3.99976 15H11.9998V8C11.9998 6.9 11.6081 5.95833 10.8248 5.175C10.0414 4.39167 9.09976 4 7.99976 4C6.89976 4 5.95809 4.39167 5.17476 5.175C4.39142 5.95833 3.99976 6.9 3.99976 8V15Z" fill="#344054"/>
</svg>
