<svg width="24" height="24" viewBox="0 0 24 24" fill="none" xmlns="http://www.w3.org/2000/svg">
<path d="M24 2.43376C20.7719 1.91127 18.3743 2.52876 16.807 4.28622C15.2398 6.04369 14.4561 8.63239 14.4561 12.0523V21.7421H24V12.0523H19.0877C18.8304 10.3424 19.0643 8.95301 19.7895 7.88428C20.538 6.81555 21.7544 6.35243 23.4386 6.49493L24 2.43376ZM9.54386 2.43376C6.31579 1.91127 3.91813 2.52876 2.35088 4.28622C0.783626 6.04369 0 8.63239 0 12.0523V21.7421H9.54386V12.0523H4.63158C4.37427 10.3424 4.60819 8.95301 5.33333 7.88428C6.08187 6.81555 7.29824 6.35243 8.98245 6.49493L9.54386 2.43376Z" fill="white"/>
</svg>
