<svg width="14" height="15" viewBox="0 0 14 15" fill="none" xmlns="http://www.w3.org/2000/svg">
<path d="M1.341 12.7501C1.2535 12.7501 1.17742 12.73 1.11274 12.6899C1.04807 12.6498 0.997768 12.597 0.961835 12.5313C0.921322 12.4672 0.899044 12.3977 0.894999 12.3228C0.890945 12.2479 0.913224 12.1716 0.961835 12.0938L6.62017 2.323C6.66878 2.24522 6.72468 2.18932 6.78788 2.15529C6.85107 2.12126 6.92156 2.10425 6.99934 2.10425C7.07711 2.10425 7.1476 2.12126 7.21079 2.15529C7.27399 2.18932 7.32989 2.24522 7.3785 2.323L13.0368 12.0938C13.0854 12.1716 13.1077 12.2479 13.1037 12.3228C13.0996 12.3977 13.0773 12.4672 13.0368 12.5313C13.0009 12.597 12.9506 12.6498 12.8859 12.6899C12.8213 12.73 12.7452 12.7501 12.6577 12.7501H1.341ZM2.09933 11.8751H11.8993L6.99934 3.41675L2.09933 11.8751ZM7.06022 11.0438C7.18491 11.0438 7.28857 11.0017 7.37121 10.9173C7.45385 10.833 7.49517 10.7285 7.49517 10.6038C7.49517 10.4791 7.453 10.3754 7.36866 10.2928C7.28431 10.2102 7.17979 10.1688 7.05512 10.1688C6.93043 10.1688 6.82677 10.211 6.74413 10.2953C6.66149 10.3797 6.62017 10.4842 6.62017 10.6089C6.62017 10.7336 6.66234 10.8372 6.74668 10.9199C6.83103 11.0025 6.93554 11.0438 7.06022 11.0438ZM7.06022 9.42508C7.18491 9.42508 7.28857 9.38315 7.37121 9.2993C7.45385 9.21545 7.49517 9.11154 7.49517 8.98758V6.59591C7.49517 6.47196 7.453 6.36805 7.36866 6.2842C7.28431 6.20034 7.17979 6.15841 7.05512 6.15841C6.93043 6.15841 6.82677 6.20034 6.74413 6.2842C6.66149 6.36805 6.62017 6.47196 6.62017 6.59591V8.98758C6.62017 9.11154 6.66234 9.21545 6.74668 9.2993C6.83103 9.38315 6.93554 9.42508 7.06022 9.42508Z" fill="#DE350B"/>
</svg>
