<svg width="12" height="12" viewBox="0 0 12 12" fill="none" xmlns="http://www.w3.org/2000/svg">
<path d="M11.8024 4.3545C11.7272 4.134 11.5282 3.97825 11.2961 3.96016L7.9705 3.69591L6.53141 0.510331C6.4375 0.300915 6.22925 0.166748 6 0.166748C5.77075 0.166748 5.5625 0.300915 5.46858 0.509748L4.0295 3.69591L0.703915 3.96016C0.475831 3.97825 0.279248 4.12816 0.201664 4.34341C0.124081 4.55866 0.178915 4.79958 0.342831 4.95941L2.80041 7.35516L1.93125 11.1188C1.87758 11.3516 1.9715 11.5937 2.16808 11.7296C2.26841 11.7984 2.38391 11.8334 2.5 11.8334C2.61258 11.8334 2.72575 11.8007 2.82375 11.7354L6 9.61791L9.17625 11.7354C9.37925 11.8707 9.64583 11.8655 9.84417 11.7214C10.0413 11.5773 10.1282 11.3247 10.0612 11.0902L8.99425 7.35691L11.6402 4.97575C11.8135 4.81941 11.8771 4.57558 11.8024 4.3545Z" fill="#FFBA08"/>
</svg>
