<svg width="15" height="15" viewBox="0 0 15 15" fill="none" xmlns="http://www.w3.org/2000/svg">
<mask id="mask0_12525_199255" style="mask-type:alpha" maskUnits="userSpaceOnUse" x="0" y="0" width="15" height="15">
<rect width="15" height="15" fill="#D9D9D9"/>
</mask>
<g mask="url(#mask0_12525_199255)">
<path d="M4.16667 14C3.76944 14 3.4294 13.8586 3.14653 13.5757C2.86366 13.2928 2.72222 12.9528 2.72222 12.5556V3.16667H2V1.72222H5.61111V1H9.94444V1.72222H13.5556V3.16667H12.8333V12.5556C12.8333 12.9528 12.6919 13.2928 12.409 13.5757C12.1262 13.8586 11.7861 14 11.3889 14H4.16667ZM11.3889 3.16667H4.16667V12.5556H11.3889V3.16667ZM5.61111 11.1111H7.05556V4.61111H5.61111V11.1111ZM8.5 11.1111H9.94444V4.61111H8.5V11.1111Z" fill="#1D2939"/>
</g>
</svg>
