<svg width="101" height="49" viewBox="0 0 101 49" fill="none" xmlns="http://www.w3.org/2000/svg">
<g clip-path="url(#clip0_11820_1477)">
<g clip-path="url(#clip1_11820_1477)">
<g clip-path="url(#clip2_11820_1477)">
<path d="M77.3367 27.2347V30.887C105.597 29.2064 84.58 28.3334 77.3367 27.2347Z" fill="#B4B7C9"/>
<path d="M77.5273 33.2697V36.8561L77.7635 36.9152C99.2936 34.9281 93.1137 34.2038 77.5273 33.2697Z" fill="#B4B7C9"/>
<path d="M66.7583 1.49988V13.2929C84.4776 12.6937 84.5651 11.6893 75.3759 10.4717L77.0287 8.46484C88.3739 10.2059 87.6545 13.0575 79.5078 14.4856C82.2376 15.4455 91.9136 17.2246 80.216 20.7421C82.1196 21.2593 92.8545 23.9166 79.5078 26.2905C81.6223 27.2454 92.8426 28.615 79.9798 32.075C83.3103 32.622 91.8691 34.4466 80.5702 38.0955C84.8418 38.5424 85.3248 38.6907 86.4725 40.6928V48.366H91.6666V1.49988H66.7583Z" fill="#B4B7C9"/>
<path d="M77.2568 21.6874V25.3471C82.5728 24.3014 106.837 23.8772 77.2568 21.6874Z" fill="#B4B7C9"/>
<path d="M77.028 15.4496V19.3258C93.6396 18.4322 99.252 17.2748 77.028 15.4496Z" fill="#B4B7C9"/>
</g>
<g clip-path="url(#clip3_11820_1477)">
<path d="M60.0531 13.9986H57.2189V13.4413H63.4909V13.9986H60.6574V21.5717H60.0531V13.9986Z" fill="#B4B7C9"/>
<path d="M49.2735 13.4413H49.8776V17.2047H55.0811V13.4413H55.6852V21.5717H55.0811V17.7617H49.8776V21.5717H49.2735V13.4413Z" fill="#B4B7C9"/>
<path d="M41.3165 13.4413H47.1006V13.9986H41.9206V17.1928H46.578V17.7505H41.9206V21.0144H47.1588V21.5717H41.3163V13.4413H41.3165Z" fill="#B4B7C9"/>
<path d="M48.7611 26.2444H51.4591L53.0654 31.5753L54.8423 26.2186H57.0406L58.8168 31.5753L60.4231 26.2444H63.069L59.989 35.524H57.7643L55.9213 30.22L54.0656 35.524H51.8409L48.7611 26.2444Z" fill="#B4B7C9"/>
<path d="M39.2119 30.775V30.7401C39.2119 27.971 41.1925 25.7802 43.9972 25.7802C47.2574 25.7802 48.7643 28.1815 48.7643 30.968C48.7643 31.1782 48.7643 31.4236 48.7471 31.652H42.4023C42.6649 32.6858 43.4188 33.2115 44.4524 33.2115C45.2593 33.2115 45.8726 32.9137 46.5562 32.2476L48.396 33.7726C47.4849 34.9289 46.1706 35.7002 44.2952 35.7002C41.3159 35.7 39.2119 33.7023 39.2119 30.775ZM45.6617 29.9515C45.5392 28.8994 44.9087 28.2332 43.9972 28.2332C43.1201 28.2332 42.525 28.8994 42.3495 29.9515H45.6617Z" fill="#B4B7C9"/>
<path d="M29.1607 26.246H33.8862C35.0447 26.246 35.8606 26.5355 36.4004 27.0623C36.7687 27.4436 36.9926 27.9308 36.9926 28.5627V28.5889C36.9926 29.6551 36.387 30.287 35.5708 30.6425C36.6901 31.0109 37.401 31.6427 37.401 32.8934V32.9192C37.401 34.4993 36.1109 35.46 33.9126 35.46H29.1605V26.246H29.1607ZM34.4784 29.0893C34.4784 28.5759 34.0709 28.2996 33.3206 28.2996H31.6485V29.9184H33.2548C34.0315 29.9184 34.4784 29.6551 34.4784 29.1155V29.0893ZM33.5967 31.7083H31.6487V33.4064H33.6231C34.4126 33.4064 34.8476 33.1037 34.8476 32.5641V32.5379C34.8476 32.0377 34.452 31.7083 33.5967 31.7083Z" fill="#B4B7C9"/>
<path d="M18.9506 26.246H23.6761C24.8346 26.246 25.6505 26.5355 26.1903 27.0623C26.5587 27.4436 26.7826 27.9308 26.7826 28.5627V28.5889C26.7826 29.6551 26.1769 30.287 25.3608 30.6425C26.4801 31.0109 27.1901 31.6427 27.1901 32.8934V32.9192C27.1901 34.4993 25.9006 35.46 23.7025 35.46H18.9504V26.246H18.9506ZM24.2683 29.0893C24.2683 28.5759 23.8608 28.2996 23.1105 28.2996H21.4384V29.9184H23.0447C23.8205 29.9184 24.2683 29.6551 24.2683 29.1155V29.0893ZM23.3864 31.7083H21.4384V33.4064H23.4128C24.2023 33.4064 24.6371 33.1037 24.6371 32.5641V32.5379C24.6371 32.0377 24.2426 31.7083 23.3864 31.7083Z" fill="#B4B7C9"/>
<path d="M12.8922 32.0115L9.37781 26.246H12.2872L14.1823 29.6023L16.0909 26.246H18.9479L15.4454 31.9721V35.46H12.8924V32.0115H12.8922Z" fill="#B4B7C9"/>
<path d="M58.3231 39.3983H58.9039L62.6901 47.5869H62.0284L60.9947 45.3103H56.1973L55.1636 47.5869H54.5366L58.3231 39.3983ZM60.7392 44.7642L58.6023 40.0604L56.453 44.7642H60.7392Z" fill="#B4B7C9"/>
<path d="M42.9424 39.4533H43.6162L46.1713 46.6894L48.5528 39.4296H49.0169L51.3986 46.6894L53.9538 39.4533H54.5807L51.6308 47.6419H51.1429L48.7615 40.5798L46.3802 47.6419H45.8924L42.9424 39.4533Z" fill="#B4B7C9"/>
<path d="M38.4246 39.4032H39.0054L42.7916 47.5913H42.13L41.0962 45.3151H36.2989L35.2651 47.5913H34.6382L38.4246 39.4032ZM40.8408 44.769L38.7038 40.0653L36.5546 44.769H40.8408Z" fill="#B4B7C9"/>
<path d="M26.6242 39.453H30.0391C31.0382 39.453 31.8398 39.7665 32.3277 40.2541C32.711 40.6377 32.9432 41.1833 32.9432 41.7641V41.7874C32.9432 43.1461 31.9327 43.925 30.5617 44.1104L33.2448 47.5836H32.4779L29.888 44.2154H27.2283V47.5836H26.6242V39.453ZM29.9695 43.6691C31.3284 43.6691 32.3386 42.9837 32.3386 41.8109V41.7874C32.3386 40.6959 31.4797 40.0101 30.0042 40.0101H27.2283V43.6691H29.9695Z" fill="#B4B7C9"/>
<path d="M18.1001 39.453H20.8067C23.3619 39.453 25.1276 41.2066 25.1276 43.4951V43.518C25.1276 45.8065 23.3619 47.5836 20.8067 47.5836H18.1001V39.453ZM18.7042 40.0101V47.0259H20.8067C23.0715 47.0259 24.5 45.4809 24.5 43.5415V43.518C24.5 41.5904 23.0715 40.0103 20.8067 40.0103H18.7042V40.0101Z" fill="#B4B7C9"/>
<path d="M11.0159 46.4016L11.4109 45.9487C12.306 46.7735 13.1304 47.1564 14.3265 47.1564C15.5455 47.1564 16.382 46.4713 16.382 45.5423V45.5188C16.382 44.6594 15.9297 44.1601 14.0831 43.7882C12.1321 43.3933 11.341 42.7312 11.341 41.4997V41.4764C11.341 40.2685 12.4453 39.3397 13.9546 39.3397C15.1402 39.3397 15.9178 39.6646 16.742 40.3267L16.3593 40.8029C15.5925 40.1408 14.8256 39.8849 13.9318 39.8849C12.7355 39.8849 11.946 40.5705 11.946 41.4182V41.4417C11.946 42.3011 12.3878 42.8237 14.3144 43.2186C16.1957 43.6017 16.9869 44.2757 16.9869 45.4603V45.4836C16.9869 46.7959 15.8603 47.7021 14.2918 47.7021C12.9912 47.7023 11.9914 47.2728 11.0159 46.4016Z" fill="#B4B7C9"/>
</g>
</g>
</g>
<defs>
<clipPath id="clip0_11820_1477">
<rect width="100" height="48" fill="white" transform="translate(0.666641 0.5)"/>
</clipPath>
<clipPath id="clip1_11820_1477">
<rect width="82.2888" height="46.8661" fill="white" transform="translate(9.37781 1.49988)"/>
</clipPath>
<clipPath id="clip2_11820_1477">
<rect width="24.9084" height="46.8661" fill="white" transform="translate(66.7583 1.49988)"/>
</clipPath>
<clipPath id="clip3_11820_1477">
<rect width="54.1131" height="34.2608" fill="white" transform="translate(9.37781 13.4413)"/>
</clipPath>
</defs>
</svg>
