<svg width="56" height="56" viewBox="0 0 56 56" fill="none" xmlns="http://www.w3.org/2000/svg">
<path d="M28 29.0501L22.75 34.3001C22.6 34.4501 22.425 34.5251 22.225 34.5251C22.025 34.5251 21.85 34.4501 21.7 34.3001C21.55 34.1501 21.475 33.9751 21.475 33.7751C21.475 33.5751 21.55 33.4001 21.7 33.2501L26.95 28.0001L21.7 22.7501C21.55 22.6001 21.475 22.4251 21.475 22.2251C21.475 22.0251 21.55 21.8501 21.7 21.7001C21.85 21.5501 22.025 21.4751 22.225 21.4751C22.425 21.4751 22.6 21.5501 22.75 21.7001L28 26.9501L33.25 21.7001C33.4 21.5501 33.575 21.4751 33.775 21.4751C33.975 21.4751 34.15 21.5501 34.3 21.7001C34.45 21.8501 34.525 22.0251 34.525 22.2251C34.525 22.4251 34.45 22.6001 34.3 22.7501L29.05 28.0001L34.3 33.2501C34.45 33.4001 34.525 33.5751 34.525 33.7751C34.525 33.9751 34.45 34.1501 34.3 34.3001C34.15 34.4501 33.975 34.5251 33.775 34.5251C33.575 34.5251 33.4 34.4501 33.25 34.3001L28 29.0501Z" fill="#101828"/>
</svg>
