<svg width="18" height="18" viewBox="0 0 18 18" fill="none" xmlns="http://www.w3.org/2000/svg">
<g id="icon-l">
<path id="Vector" d="M3.375 14.6253H4.2L12.5062 6.31902L11.6812 5.49402L3.375 13.8003V14.6253ZM14.8875 5.51277L12.4875 3.11277L13.275 2.32527C13.4875 2.11277 13.7531 2.00964 14.0719 2.01589C14.3906 2.02214 14.6563 2.13152 14.8688 2.34402L15.675 3.15027C15.8875 3.36277 15.9938 3.62527 15.9938 3.93777C15.9938 4.25027 15.8875 4.51277 15.675 4.72527L14.8875 5.51277ZM2.8125 15.7503C2.65 15.7503 2.51563 15.6971 2.40938 15.5909C2.30313 15.4846 2.25 15.3503 2.25 15.1878V13.5753C2.25 13.5003 2.2625 13.4315 2.2875 13.369C2.3125 13.3065 2.35625 13.244 2.41875 13.1815L11.7 3.90027L14.1 6.30027L4.81875 15.5815C4.75625 15.644 4.69375 15.6878 4.63125 15.7128C4.56875 15.7378 4.5 15.7503 4.425 15.7503H2.8125ZM12.0938 5.90652L11.6812 5.49402L12.5062 6.31902L12.0938 5.90652Z" fill="#5D69FF"/>
</g>
</svg>
