<svg width="88" height="37" viewBox="0 0 88 37" fill="none" xmlns="http://www.w3.org/2000/svg">
<g id="Frame" clip-path="url(#clip0_11823_2286)">
<path id="Vector" d="M81.1167 1.14209C81.6877 1.14209 82.1741 1.34299 82.5759 1.74478C82.9777 2.14658 83.1786 2.63296 83.1786 3.20394C83.1786 3.75376 82.9777 4.22957 82.5759 4.63137C82.1741 5.03316 81.6877 5.23406 81.1167 5.23406C80.5457 5.23406 80.0593 5.03316 79.6576 4.63137C79.2558 4.22957 79.0549 3.75376 79.0549 3.20394C79.0549 2.63296 79.2558 2.14658 79.6576 1.74478C80.0593 1.34299 80.5457 1.14209 81.1167 1.14209ZM85.9383 1.14209C86.5092 1.14209 86.9956 1.34299 87.3974 1.74478C87.7992 2.14658 88.0001 2.63296 88.0001 3.20394C88.0001 3.75376 87.7992 4.22957 87.3974 4.63137C86.9956 5.03316 86.5092 5.23406 85.9383 5.23406C85.3884 5.23406 84.9126 5.03316 84.5108 4.63137C84.109 4.22957 83.9081 3.75376 83.9081 3.20394C83.9081 2.63296 84.109 2.14658 84.5108 1.74478C84.9126 1.34299 85.3884 1.14209 85.9383 1.14209ZM87.5877 8.12065V19.2229C87.5877 20.0476 87.3128 20.8089 86.763 21.5068C86.0651 22.3104 85.1981 22.7122 84.1619 22.7122H78.0398V19.4767H82.9248C83.1574 19.4767 83.3583 19.3921 83.5275 19.2229C83.6755 19.0749 83.7495 18.8951 83.7495 18.6836V8.12065H87.5877Z" fill="#0157FF"/>
<path id="Vector_2" d="M64.2637 19.4764C63.7562 18.2499 63.5024 16.8753 63.5024 15.3527C63.5024 12.8574 64.2743 10.9224 65.818 9.54784C67.108 8.38475 68.7575 7.79263 70.7665 7.77148C72.564 7.77148 74.0337 8.19443 75.1756 9.04031C76.5714 10.0977 77.2692 11.6203 77.2692 13.6081V18.6834C77.2692 18.8737 77.3221 19.0535 77.4278 19.2227C77.597 19.3918 77.7873 19.4764 77.9988 19.4764H78.2843V22.7119H76.8886C75.9369 22.7119 75.1228 22.3736 74.4461 21.6969C73.4099 23.008 72.0353 23.6636 70.3224 23.6636C68.4826 23.6636 66.9177 22.9869 65.6277 21.6334H65.5643L64.6761 22.7119H58.6174V19.4764H64.2637ZM73.3993 13.6081C73.3993 12.8257 73.1561 12.1912 72.6697 11.7049C72.2256 11.2185 71.5912 10.9753 70.7665 10.9753C69.7303 10.9753 68.8949 11.3771 68.2605 12.1807C67.6473 12.9843 67.3406 14.0628 67.3406 15.4162C67.3406 16.8965 67.6578 18.1019 68.2923 19.0323C68.9267 19.9628 69.7408 20.4281 70.7347 20.4281C71.6441 20.4281 72.5323 19.9945 73.3993 19.1275V13.6081Z" fill="#0157FF"/>
<path id="Vector_3" d="M51.24 22.7119C48.9139 22.7119 47.0846 21.9189 45.7524 20.3329C44.6316 18.9795 44.0712 17.3088 44.0712 15.321C44.0712 12.9525 44.7373 11.1021 46.0696 9.76987C47.4653 8.41646 49.2522 7.73975 51.4304 7.73975C53.0164 7.73975 54.391 8.13097 55.5541 8.91341C57.0767 10.0131 57.838 11.578 57.838 13.6081V19.4764H58.853V22.7119H57.8062C57.6582 24.9958 56.8546 26.7827 55.3955 28.0727C54.3804 28.9821 53.1644 29.6059 51.7476 29.9442C50.7537 30.1769 49.7809 30.2932 48.8293 30.2932C48.5121 30.2932 48.0574 30.272 47.4653 30.2297H47.3701L45.7524 28.2313V26.8356C46.6194 26.9836 47.4336 27.0577 48.1949 27.0577C51.663 27.0577 53.5557 25.6091 53.8729 22.7119H51.24ZM53.968 13.6081C53.968 12.7622 53.6931 12.0961 53.1433 11.6097C52.6569 11.1867 52.0859 10.9753 51.4304 10.9753C50.3519 10.9753 49.4954 11.3559 48.861 12.1172C48.2266 12.8785 47.9094 13.9253 47.9094 15.2576C47.9094 16.5475 48.2583 17.5732 48.9562 18.3345C49.654 19.0958 50.6056 19.4764 51.811 19.4764H53.968V13.6081Z" fill="#0157FF"/>
<path id="Vector_4" d="M40.0687 8.12036V19.2226C40.0687 20.0474 39.7938 20.8087 39.2439 21.5065C38.5461 22.3101 37.6791 22.7119 36.6428 22.7119H30.5208V19.4764H35.4057C35.6384 19.4764 35.8393 19.3918 36.0084 19.2226C36.1565 19.0746 36.2305 18.8948 36.2305 18.6834V8.12036H40.0687ZM33.1219 25.0275C33.6928 25.0275 34.1792 25.2284 34.581 25.6302C34.9828 26.032 35.1837 26.5184 35.1837 27.0894C35.1837 27.6603 34.9828 28.1467 34.581 28.5485C34.1792 28.9503 33.6928 29.1512 33.1219 29.1512C32.572 29.1512 32.0962 28.9503 31.6944 28.5485C31.2926 28.1467 31.0917 27.6603 31.0917 27.0894C31.0917 26.5184 31.2926 26.032 31.6944 25.6302C32.0962 25.2284 32.572 25.0275 33.1219 25.0275ZM37.9751 25.0275C38.5461 25.0275 39.0219 25.2284 39.4026 25.6302C39.8043 26.032 40.0052 26.5184 40.0052 27.0894C40.0052 27.6603 39.8043 28.1467 39.4026 28.5485C39.0219 28.9503 38.5461 29.1512 37.9751 29.1512C37.4041 29.1512 36.9178 28.9503 36.516 28.5485C36.1142 28.1467 35.9133 27.6603 35.9133 27.0894C35.9133 26.5184 36.1142 26.032 36.516 25.6302C36.9178 25.2284 37.4041 25.0275 37.9751 25.0275Z" fill="#0157FF"/>
<path id="Vector_5" d="M29.1341 0V19.0007V19.4765H30.7519V22.712H29.6734L28.468 21.4115H28.4045C27.6855 22.2785 26.7868 22.712 25.7083 22.712H19.5862V19.4765H24.4712C24.7249 19.4765 24.9364 19.3919 25.1056 19.2228C25.2325 19.0113 25.2959 18.8315 25.2959 18.6835V0H29.1341Z" fill="#0157FF"/>
<path id="Vector_6" d="M3.86993 17.1926V21.6018C3.86993 23.6108 4.36689 25.0171 5.36081 25.8207C6.37587 26.6454 8.10993 27.0578 10.563 27.0578C12.6989 27.0578 14.2426 26.7829 15.1942 26.233C16.3573 25.5775 17.0235 24.4038 17.1926 22.712H15.226L13.5765 20.6819V19.4765H22.3314V22.712H21.126C20.9568 25.3554 19.8995 27.3433 17.9539 28.6755C16.4313 29.754 14.4964 30.2933 12.149 30.2933H9.00869C6.34415 30.2933 4.21886 29.606 2.63282 28.2314C0.877607 26.7934 0 24.6999 0 21.9507V18.7469L1.96669 17.1926H3.86993ZM8.05706 32.1331C8.62804 32.1331 9.11442 32.334 9.51622 32.7358C9.91801 33.1376 10.1189 33.624 10.1189 34.1949C10.1189 34.7659 9.91801 35.2523 9.51622 35.6541C9.11442 36.0559 8.62804 36.2568 8.05706 36.2568C7.48609 36.2568 6.99971 36.0559 6.59791 35.6541C6.19611 35.2523 5.99522 34.7659 5.99522 34.1949C5.99522 33.624 6.19611 33.1376 6.59791 32.7358C6.99971 32.334 7.48609 32.1331 8.05706 32.1331ZM12.8786 32.1331C13.4496 32.1331 13.936 32.334 14.3378 32.7358C14.7396 33.1376 14.9405 33.624 14.9405 34.1949C14.9405 34.7659 14.7396 35.2523 14.3378 35.6541C13.936 36.0559 13.4496 36.2568 12.8786 36.2568C12.3288 36.2568 11.853 36.0559 11.4512 35.6541C11.0494 35.2523 10.8485 34.7659 10.8485 34.1949C10.8485 33.624 11.0494 33.1376 11.4512 32.7358C11.853 32.334 12.3288 32.1331 12.8786 32.1331Z" fill="#0157FF"/>
</g>
<defs>
<clipPath id="clip0_11823_2286">
<rect width="88" height="36.2567" fill="white"/>
</clipPath>
</defs>
</svg>
