<svg width="26" height="26" viewBox="0 0 26 26" fill="none" xmlns="http://www.w3.org/2000/svg">
<path d="M13.4167 20.1667C13.1819 20.1667 12.9878 20.0899 12.8344 19.9365C12.6809 19.783 12.6042 19.5889 12.6042 19.3542V13.3958H6.64583C6.41111 13.3958 6.21701 13.3191 6.06354 13.1656C5.91006 13.0122 5.83333 12.8181 5.83333 12.5833C5.83333 12.3486 5.91006 12.1545 6.06354 12.001C6.21701 11.8476 6.41111 11.7708 6.64583 11.7708H12.6042V5.8125C12.6042 5.57778 12.6809 5.38368 12.8344 5.23021C12.9878 5.07674 13.1819 5 13.4167 5C13.6514 5 13.8455 5.07674 13.999 5.23021C14.1524 5.38368 14.2292 5.57778 14.2292 5.8125V11.7708H20.1875C20.4222 11.7708 20.6163 11.8476 20.7698 12.001C20.9233 12.1545 21 12.3486 21 12.5833C21 12.8181 20.9233 13.0122 20.7698 13.1656C20.6163 13.3191 20.4222 13.3958 20.1875 13.3958H14.2292V19.3542C14.2292 19.5889 14.1524 19.783 13.999 19.9365C13.8455 20.0899 13.6514 20.1667 13.4167 20.1667Z" fill="black"/>
</svg>
